HIERARCHY
ROOT Hips
{
     OFFSET 1.88212 96.90440 -13.34250
     CHANNELS 6 Xposition Yposition Zposition Zrotation Xrotation Yrotation
     JOINT Spine
     {
          OFFSET 0.00000 11.89050 0.00000
          CHANNELS 3 Zrotation Xrotation Yrotation
          JOINT Spine1
          {
               OFFSET -0.00000 25.65740 0.12766
               CHANNELS 3 Zrotation Xrotation Yrotation
               JOINT HEad
               {
                    OFFSET 0.00000 8.73416 0.01134
                    CHANNELS 3 Zrotation Xrotation Yrotation
                    End Site
                    {
                         OFFSET -0.29000 12.77420 2.51395
                    }
               }
               JOINT LeftShoulder1
               {
                    OFFSET 8.99000 -0.36225 -0.22000
                    CHANNELS 3 Zrotation Xrotation Yrotation
                    JOINT LeftArm
                    {
                         OFFSET 10.28270 -0.00338 0.32212
                         CHANNELS 3 Zrotation Xrotation Yrotation
                         JOINT LeftForeArm
                         {
                              OFFSET 32.76690 0.09914 -1.42434
                              CHANNELS 3 Zrotation Xrotation Yrotation
                              JOINT LeftHand
                              {
                                   OFFSET 27.56430 0.08536 1.02216
                                   CHANNELS 3 Zrotation Xrotation Yrotation
                                   End Site
                                   {
                                        OFFSET 16.74430 -0.60000 1.50291
                                   }
                              }
                         }
                    }
               }
               JOINT RightShoulder
               {
                    OFFSET -8.99000 -0.36225 -0.22000
                    CHANNELS 3 Zrotation Xrotation Yrotation
                    JOINT RightArm
                    {
                         OFFSET -10.28270 -0.00338 0.32212
                         CHANNELS 3 Zrotation Xrotation Yrotation
                         JOINT RightForeArm
                         {
                              OFFSET -32.89710 0.09914 -1.42434
                              CHANNELS 3 Zrotation Xrotation Yrotation
                              JOINT RightHand
                              {
                                   OFFSET -27.49210 0.08536 1.02216
                                   CHANNELS 3 Zrotation Xrotation Yrotation
                                   End Site
                                   {
                                        OFFSET -16.63120 -0.60000 1.50291
                                   }
                              }
                         }
                    }
               }
          }
     }
     JOINT LeftUpLeg
     {
          OFFSET 8.94580 -8.66707 0.10165
          CHANNELS 3 Zrotation Xrotation Yrotation
          JOINT LeftLeg
          {
               OFFSET 0.00000 -44.42270 1.37270
               CHANNELS 3 Zrotation Xrotation Yrotation
               JOINT LeftFoot
               {
                    OFFSET -0.25355 -42.09240 -1.46059
                    CHANNELS 3 Zrotation Xrotation Yrotation
                    JOINT LeftToes
                    {
                         OFFSET -0.04000 -4.41509 8.49910
                         CHANNELS 3 Zrotation Xrotation Yrotation
                         End Site
                         {
                              OFFSET 0.08000 -0.04745 9.77979
                         }
                    }
               }
          }
     }
     JOINT RightUpLeg
     {
          OFFSET -8.94580 -8.66707 0.10165
          CHANNELS 3 Zrotation Xrotation Yrotation
          JOINT RightLeg
          {
               OFFSET 0.00000 -44.42270 1.37270
               CHANNELS 3 Zrotation Xrotation Yrotation
               JOINT RightFoot
               {
                    OFFSET 0.25355 -42.09240 -1.46059
                    CHANNELS 3 Zrotation Xrotation Yrotation
                    JOINT RightToes
                    {
                         OFFSET 0.04000 -4.41509 8.49910
                         CHANNELS 3 Zrotation Xrotation Yrotation
                         End Site
                         {
                              OFFSET -0.08000 -0.13745 9.77979
                         }
                    }
               }
          }
     }
}
MOTION
Frames: 10
Frame Time: 0.01667
80.21683 80.60852 -36.06783 -7.46342 9.78835 -148.73790 18.16278 4.37212 2.58038 -0.01271 0.00027 -0.01538 -6.58916 32.92230 21.74580 -3.16225 7.21635 2.92498 -39.94122 -60.49660 10.65660 -46.99618 58.58104 -102.25867 5.65299 9.12801 -2.05412 27.45463 9.80049 7.08125 31.25300 -1.41653 59.83183 11.62952 33.82014 105.75616 -4.71131 6.04691 -0.55131 20.67085 -29.23057 5.72582 -9.21940 54.19294 8.66767 -30.00657 0.00749 -0.00474 12.85163 -19.72305 -8.89852 -16.04803 5.84441 13.31430 9.30733 52.69432 -8.52323 79.93667 0.05578 -0.02253 -102.75539 -69.20925 -19.32727 
80.23648 80.27179 -35.68719 -7.84619 10.46651 -148.57867 18.00816 6.32166 4.13986 -0.01278 0.00021 -0.01573 -5.26168 31.69075 18.78473 -3.40186 6.55795 1.12390 -42.24155 -59.57630 7.95974 -45.36692 58.16611 -104.00284 5.49496 9.39747 -1.93080 26.51596 8.48898 6.01851 32.26450 -1.40995 60.49899 12.31590 34.11435 105.47998 -4.77853 6.63877 -0.67701 20.30935 -29.10050 4.40059 -9.35126 54.27885 10.57491 -29.13019 -0.00729 -0.01278 11.56308 -18.91899 -9.87858 -16.86567 5.66265 13.18843 10.62292 54.22312 -9.26723 84.97363 0.03970 -0.02941 -107.35078 -70.55561 -18.24607 
80.18341 80.02792 -35.30415 -8.09054 11.01405 -148.46640 17.62059 8.03936 5.52728 -0.01245 0.00065 -0.01619 -4.17152 30.53713 16.32464 -3.56238 5.96495 -0.59296 -43.66411 -58.86298 5.75755 -43.98080 57.60009 -105.38519 5.28052 9.83655 -1.70296 25.62863 7.29404 4.97999 33.20650 -1.36889 61.12267 12.99860 34.37557 105.25631 -4.62921 7.12377 -0.98144 19.82645 -29.03331 3.08723 -7.64945 53.78051 10.29175 -29.48621 0.00447 0.00420 10.92867 -17.72634 -9.95299 -17.63237 5.52451 13.02718 11.67918 55.22999 -9.80377 89.98795 0.02161 -0.03264 -111.03651 -71.46751 -16.41023 
80.05007 79.88320 -34.94255 -8.17056 11.39643 -148.43355 16.60391 9.51103 6.64372 -0.00717 0.00030 -0.01515 -2.97845 29.40302 14.54309 -3.23786 5.32743 -2.10513 -44.05816 -58.60299 4.11215 -43.01743 56.87917 -106.11742 5.05308 10.46115 -1.47394 25.17604 6.18385 4.13186 34.02584 -1.29656 61.68773 13.68436 34.58037 105.09382 -4.63518 7.74796 -1.22987 19.25144 -28.97976 1.81620 -5.09222 52.83840 8.48522 -30.63925 -0.00834 0.01018 10.96031 -16.47344 -9.09154 -18.33904 5.42713 12.82815 12.38682 55.67638 -10.04300 94.94713 0.00339 -0.03198 -113.75114 -71.87415 -13.81450 
79.87191 79.84177 -34.62915 -8.05641 11.59311 -148.50182 15.10161 10.71412 7.45315 -0.00199 -0.00037 -0.01399 -1.78273 28.28963 13.47165 -2.53932 4.61782 -3.43911 -43.36238 -59.01260 2.96837 -42.51330 55.93952 -105.99351 4.83449 11.30009 -1.22492 25.04711 5.12972 3.48302 34.69247 -1.20410 62.19509 14.36963 34.72124 104.99709 -4.49935 8.31267 -1.58417 18.43257 -28.83276 0.50967 -1.83838 51.26026 5.37530 -30.04913 0.01458 0.00012 9.21394 -15.31747 -7.17480 -19.05550 5.29532 12.58333 14.49988 55.41495 -11.36030 90.30932 0.00715 0.01790 -107.06132 -71.66866 -10.63334 
79.69781 79.89430 -34.37879 -7.74107 11.59396 -148.68442 12.33431 12.18262 7.27717 -0.06580 0.05543 -0.07512 -0.23258 26.47896 14.10223 -0.94258 3.13450 -3.45864 -39.81755 -61.45573 -0.04581 -39.54638 54.04438 -104.95736 6.58851 7.49308 -1.52731 17.00934 5.18842 -1.83972 41.06382 0.56973 66.84369 15.74490 33.34351 107.66912 -4.58042 8.92052 -1.67587 17.35083 -28.53033 -0.83794 2.22773 49.09157 1.10048 -30.00386 0.00472 0.00148 7.71514 -14.35825 -4.38674 -19.71675 5.07572 12.27658 15.43719 54.79434 -11.64297 86.18346 0.01391 0.01889 -100.12170 -70.90768 -7.40677 
79.54480 80.03562 -34.18844 -7.25439 11.40026 -148.99176 8.69911 13.72896 6.04105 -0.05039 0.03804 -0.08378 1.30022 24.43516 16.33660 1.09837 1.38164 -2.25184 -34.88641 -65.12086 -4.15006 -35.32962 51.48103 -102.46812 4.45623 18.32271 1.07007 20.00857 3.71173 0.80956 35.41373 -2.43540 63.36338 18.05207 31.65060 111.34199 -4.71297 9.43566 -1.59160 16.22599 -28.12101 -2.09520 4.69878 47.51289 -1.41349 -29.20267 0.01494 -0.00568 6.21975 -14.26086 -2.26660 -20.26445 4.74782 11.90698 15.63919 53.88812 -11.30209 82.32016 0.02085 0.01831 -93.38083 -69.58164 -4.60460 
79.40780 80.27483 -34.04124 -6.66948 10.99850 -149.42661 4.54945 15.23850 3.73442 -0.03086 0.02092 -0.08331 1.17899 22.69619 19.98661 -2.70206 2.77260 -8.76081 1.72504 -73.46735 16.97884 -30.03858 48.10207 -99.11427 9.18539 -3.33126 -2.28071 22.97373 2.66847 4.24169 32.10030 -3.87246 61.62454 17.65427 32.09252 109.41743 3.76451 13.84171 -14.75661 15.21244 -27.70622 -3.13884 6.46542 46.21065 -3.02968 -28.09737 0.01862 -0.00020 4.72301 -14.48370 -0.58966 -20.71022 4.30122 11.48495 15.38868 52.75301 -10.61764 78.58223 0.02594 0.01938 -87.15391 -67.77230 -2.59246 
79.26976 80.61843 -33.92126 -6.05518 10.43232 -149.97932 0.16800 16.72414 0.33806 -0.01514 0.01266 -0.07899 0.98426 20.79595 24.98803 0.30827 0.61718 -4.39428 4.78781 -73.21317 9.61930 -21.90089 42.75230 -95.56403 5.93268 12.81298 1.62660 25.83596 2.28526 8.34571 30.25623 -4.74379 61.01674 17.83010 32.25950 108.41713 -7.66407 8.89068 3.50023 14.39545 -27.33074 -3.91559 7.88738 44.95712 -4.13077 -26.90097 0.01768 0.00164 3.22212 -14.69135 0.81619 -21.06229 3.77172 11.03297 14.82858 51.44157 -9.74919 74.92026 0.02919 0.02169 -81.47633 -65.56107 -1.44535 
79.10218 81.05965 -33.81678 -5.45447 9.74504 -150.63387 -3.99910 18.25503 -3.68316 -0.00364 0.01080 -0.06799 0.66018 18.69388 30.64139 3.17632 -1.17887 0.39068 5.09542 -69.27020 0.57672 -11.90066 34.62825 -90.78354 9.27510 -9.12452 -1.40683 23.04161 0.56597 3.15023 35.28469 0.97540 68.72406 17.98728 32.39739 107.57829 9.25253 17.15701 -23.54310 13.79196 -27.00938 -4.42110 9.07694 43.63033 -4.86703 -25.67311 0.01598 0.00048 1.70817 -14.71762 2.03438 -21.33459 3.18931 10.56510 14.03503 49.99490 -8.79292 71.32597 0.03070 0.02513 -76.16756 -63.00048 -1.02566 
